<svg id="Layer_1" data-name="Layer 1" xmlns="http://www.w3.org/2000/svg" viewBox="0 0 3330.42 1000"><defs><style>.cls-1{fill:#9d4edd;}</style></defs><path class="cls-1" d="M772.31,586.55,622.87,436.25h0l100.62-143a36,36,0,0,0-9.11-50.43L534.24,119.59A40,40,0,0,0,478.67,130l-73,106.42,7.6-85.79a36,36,0,0,0-46.59-37.54L241.15,152.31a36,36,0,0,0-25.1,37.82l67.6,700.55h64l8.44-95.12,266.78,95.12,89.61-32L647.89,805.6l127.8-172.21A36,36,0,0,0,772.31,586.55ZM601.36,767.36l-226.27-186,13.68-154.16L398.19,321H577.91L456.46,436.25h0l192.42,187Z"/><path d="M948.92,203.09h87.15c53.86,0,94.92,14.73,94.92,64.19,0,23.26-13.85,48.05-44.29,56v1.59c37,6.83,56.42,26.35,56.42,61,0,52.73-43.2,76.35-99.65,76.35H948.92Zm84.46,104c28.46,0,40.33-12,40.33-31.58,0-19.33-12.64-26.8-39.89-26.8h-26.37v58.38Zm5.32,109.5c31.91,0,47.14-11.56,47.14-35.19,0-22.74-14.9-32.13-47.14-32.13h-31.25v67.32Z"/><path d="M1187.62,413h60.51V252.26h-60.51V203.09h179.67v49.17h-60.51V413h60.51v49.18H1187.62Z"/><path d="M1486.7,252.26H1409V203.09h214v49.17h-77.68v210H1486.7Z"/><path d="M1664.63,203.09h87.15c53.86,0,94.92,14.73,94.92,64.19,0,23.26-13.85,48.05-44.29,56v1.59c37,6.83,56.42,26.35,56.42,61,0,52.73-43.21,76.35-99.65,76.35h-94.55Zm84.45,104c28.47,0,40.34-12,40.34-31.58,0-19.33-12.64-26.8-39.89-26.8h-26.37v58.38Zm5.33,109.5c31.91,0,47.14-11.56,47.14-35.19,0-22.74-14.9-32.13-47.14-32.13h-31.25v67.32Z"/><path d="M1963.84,374.61l-83.46-171.52H1943l26.34,62.22c7.65,20,15.36,38.72,23.51,59.4h1.59c8-20.68,16.38-39.41,24.31-59.4l26-62.22H2106l-83.47,171.52v87.6h-58.64Z"/><path d="M2141.77,203.09h87.15c53.86,0,94.92,14.73,94.92,64.19,0,23.26-13.85,48.05-44.29,56v1.59c37,6.83,56.42,26.35,56.42,61,0,52.73-43.21,76.35-99.65,76.35h-94.55Zm84.45,104c28.47,0,40.34-12,40.34-31.58,0-19.33-12.64-26.8-39.89-26.8H2200.3v58.38Zm5.33,109.5c31.91,0,47.14-11.56,47.14-35.19,0-22.74-14.9-32.13-47.14-32.13H2200.3v67.32Z"/><path d="M2380.47,413H2441V252.26h-60.51V203.09h179.66v49.17h-60.51V413h60.51v49.18H2380.47Z"/><path d="M2679.54,252.26h-77.67V203.09h214v49.17h-77.68v210h-58.65Z"/><path d="M1009.56,652.26H931.88V603.09h214v49.17h-77.67v210h-58.65Z"/><path d="M1183.55,762.45V603.09h58.76V768.41c0,31,11.41,47.92,35.83,47.92s36.62-16.91,36.62-47.92V603.09h56.59V762.45c0,67.29-30.27,104.53-93.21,104.53S1183.55,829.74,1183.55,762.45Z"/><path d="M1486.7,652.26H1409V603.09h214v49.17h-77.68v210H1486.7Z"/><path d="M1650.37,731.45c0-86.59,42.5-133.14,104.22-133.14s104.22,46.55,104.22,133.14c0,88.65-42.5,135.53-104.22,135.53S1650.37,820.1,1650.37,731.45Zm148.31,0c0-53.84-17.06-82.48-44.09-82.48s-44.09,28.64-44.09,82.48c0,55.9,17.06,84.88,44.09,84.88S1798.68,787.35,1798.68,731.45Z"/><path d="M1901.47,603.09h92.13c54.9,0,100.07,19.08,100.07,80.73,0,59.55-45.17,85.17-100.07,85.17h-33.37v93.22h-58.76Zm87.36,119.35c30.81,0,47.34-13.25,47.34-38.62,0-25.59-16.53-34.19-47.34-34.19h-28.6v72.81Zm34.59-6.48,82.68,146.25h-65.61l-57.66-108.68Z"/><path d="M2141.9,813h60.51V652.26H2141.9V603.09h179.66v49.17h-60.51V813h60.51v49.18H2141.9Z"/><path d="M2435.15,603.09h70.3l80.71,259.12H2524L2490.52,731c-6.56-25.87-14.45-56.22-20.68-83.57h-1.59c-6.35,27.35-13.55,57.7-20.11,83.57l-33.68,131.19h-60Zm-27.3,151.8h124v45.69h-124Z"/><path d="M2632,603.09h58.54V813h115.34v49.18H2632Z"/><path d="M2848.19,829.56l33.65-40.28c19.6,16,43.77,27.05,68.89,27.05,24.88,0,36.38-9.64,36.38-22.31,0-18.66-15.4-23.17-39.92-33.44l-33.76-14.4c-28.72-10.92-54.92-32.94-54.92-70.65,0-42.91,38.66-77.22,95-77.22,31.17,0,62.67,11.69,86.06,33.93l-29.55,37c-18.24-13.1-34.4-20.24-59.71-20.24-19.32,0-32.43,8-32.43,23.14,0,15.58,17.37,21.29,42.22,30.61l31.71,13.43c33.93,12.73,55.36,33.89,55.36,70.45,0,43.07-36.14,80.38-100.29,80.38C2911.83,867,2875.67,854.17,2848.19,829.56Z"/></svg>