<svg id="Layer_1" data-name="Layer 1" xmlns="http://www.w3.org/2000/svg" viewBox="0 0 1000 1000"><defs><style>.cls-1{fill:#9d4edd;}</style></defs><path class="cls-1" d="M772.31,586.55,622.87,436.25h0l100.62-143a36,36,0,0,0-9.11-50.43L534.24,119.59A40,40,0,0,0,478.67,130l-73,106.42,7.6-85.79a36,36,0,0,0-46.59-37.54L241.15,152.31a36,36,0,0,0-25.1,37.82l67.6,700.55h64l8.44-95.12,266.78,95.12,89.61-32L647.89,805.6l127.8-172.21A36,36,0,0,0,772.31,586.55ZM601.36,767.36l-226.27-186,13.68-154.16L398.19,321H577.91L456.46,436.25h0l192.42,187Z"/></svg>